<svg width="17" height="17" viewBox="0 0 17 17" fill="none" xmlns="http://www.w3.org/2000/svg">
<path d="M10.3134 5.97051L7.45341 8.83718L6.35341 7.73718C6.29364 7.66739 6.2201 7.61071 6.13739 7.5707C6.05468 7.53068 5.96459 7.50819 5.87278 7.50465C5.78096 7.5011 5.68941 7.51657 5.60386 7.55009C5.51831 7.5836 5.44061 7.63444 5.37564 7.69941C5.31067 7.76438 5.25983 7.84208 5.22632 7.92763C5.1928 8.01318 5.17733 8.10474 5.18088 8.19655C5.18442 8.28836 5.20691 8.37845 5.24692 8.46116C5.28694 8.54387 5.34362 8.61741 5.41341 8.67718L6.98007 10.2505C7.04237 10.3123 7.11624 10.3612 7.19747 10.3944C7.27869 10.4275 7.36567 10.4444 7.45341 10.4438C7.6283 10.4431 7.7959 10.3737 7.92007 10.2505L11.2534 6.91718C11.3159 6.8552 11.3655 6.78147 11.3993 6.70023C11.4332 6.61899 11.4506 6.53185 11.4506 6.44385C11.4506 6.35584 11.4332 6.2687 11.3993 6.18746C11.3655 6.10622 11.3159 6.03249 11.2534 5.97051C11.1285 5.84635 10.9595 5.77665 10.7834 5.77665C10.6073 5.77665 10.4383 5.84635 10.3134 5.97051ZM8.50007 1.44385C7.18153 1.44385 5.8926 1.83484 4.79627 2.56738C3.69994 3.29993 2.84546 4.34112 2.34088 5.55929C1.83629 6.77746 1.70427 8.11791 1.96151 9.41111C2.21874 10.7043 2.85368 11.8922 3.78603 12.8246C4.71838 13.7569 5.90627 14.3918 7.19947 14.6491C8.49268 14.9063 9.83312 14.7743 11.0513 14.2697C12.2695 13.7651 13.3107 12.9106 14.0432 11.8143C14.7757 10.718 15.1667 9.42905 15.1667 8.11051C15.1667 7.23503 14.9943 6.36813 14.6593 5.55929C14.3242 4.75045 13.8332 4.01553 13.2141 3.39647C12.5951 2.77741 11.8601 2.28635 11.0513 1.95132C10.2425 1.61629 9.37555 1.44385 8.50007 1.44385ZM8.50007 13.4438C7.44524 13.4438 6.41409 13.1311 5.53703 12.545C4.65997 11.959 3.97638 11.126 3.57272 10.1515C3.16905 9.17695 3.06343 8.1046 3.26922 7.07003C3.47501 6.03547 3.98296 5.08516 4.72884 4.33928C5.47472 3.5934 6.42503 3.08545 7.45959 2.87966C8.49416 2.67387 9.56651 2.77949 10.5411 3.18316C11.5156 3.58682 12.3485 4.27041 12.9346 5.14747C13.5206 6.02453 13.8334 7.05568 13.8334 8.11051C13.8334 9.525 13.2715 10.8816 12.2713 11.8817C11.2711 12.8819 9.91456 13.4438 8.50007 13.4438Z" fill="#00DF76"/>
</svg>
