<svg width="93" height="90" viewBox="0 0 93 90" fill="none" xmlns="http://www.w3.org/2000/svg">
<path d="M25.1875 37.5C24.3234 37.5 23.4941 37.6275 22.6687 37.7437C22.9361 36.8737 23.2112 35.9887 23.653 35.1937C24.0947 34.0387 24.7845 33.0375 25.4704 32.0287C26.0439 30.9375 27.0552 30.1987 27.7992 29.265C28.5781 28.3575 29.6399 27.7537 30.4807 27C31.3061 26.2125 32.3872 25.8187 33.2475 25.2637C34.1465 24.765 34.9292 24.2137 35.7662 23.9512L37.8549 23.1187L39.6916 22.38L37.8122 15.1125L35.4989 15.6525C34.7587 15.8325 33.8559 16.0425 32.829 16.2937C31.7789 16.4812 30.659 16.995 29.4112 17.4637C28.179 17.9962 26.753 18.3562 25.4277 19.2112C24.0947 20.0287 22.5564 20.7112 21.2001 21.8062C19.8865 22.935 18.3016 23.9137 17.1314 25.35C15.8526 26.6925 14.5894 28.1025 13.609 29.7075C12.4736 31.2375 11.7025 32.9175 10.8887 34.5787C10.1525 36.24 9.55962 37.9387 9.07525 39.5887C8.15687 42.8962 7.74612 46.0387 7.58725 48.7275C7.4555 51.42 7.533 53.6587 7.69575 55.2787C7.75387 56.0437 7.86237 56.7862 7.93987 57.3L8.03675 57.93L8.1375 57.9075C8.82671 61.0231 10.4133 63.8862 12.7137 66.1657C15.0142 68.4451 17.9344 70.0477 21.1367 70.7881C24.339 71.5285 27.6925 71.3764 30.8092 70.3494C33.9259 69.3224 36.6784 67.4625 38.7485 64.9848C40.8185 62.5071 42.1214 59.5129 42.5065 56.3486C42.8916 53.1843 42.343 49.9791 40.9244 47.1038C39.5057 44.2286 37.2749 41.8007 34.49 40.1012C31.7051 38.4016 28.4799 37.4998 25.1875 37.5ZM67.8125 37.5C66.9484 37.5 66.1191 37.6275 65.2937 37.7437C65.5611 36.8737 65.8362 35.9887 66.278 35.1937C66.7197 34.0387 67.4095 33.0375 68.0954 32.0287C68.6689 30.9375 69.6802 30.1987 70.4242 29.265C71.2031 28.3575 72.2649 27.7537 73.1057 27C73.9311 26.2125 75.0122 25.8187 75.8725 25.2637C76.7715 24.765 77.5542 24.2137 78.3912 23.9512L80.4799 23.1187L82.3166 22.38L80.4372 15.1125L78.1239 15.6525C77.3837 15.8325 76.4809 16.0425 75.454 16.2937C74.4039 16.4812 73.284 16.995 72.0362 17.4637C70.8079 18 69.378 18.3562 68.0527 19.215C66.7197 20.0325 65.1814 20.715 63.8251 21.81C62.5115 22.9387 60.9266 23.9175 59.7564 25.35C58.4776 26.6925 57.2144 28.1025 56.234 29.7075C55.0986 31.2375 54.3275 32.9175 53.5137 34.5787C52.7775 36.24 52.1846 37.9387 51.7002 39.5887C50.7819 42.8962 50.3711 46.0387 50.2122 48.7275C50.0805 51.42 50.158 53.6587 50.3207 55.2787C50.3789 56.0437 50.4874 56.7862 50.5649 57.3L50.6617 57.93L50.7625 57.9075C51.4517 61.0231 53.0383 63.8862 55.3387 66.1657C57.6392 68.4451 60.5594 70.0477 63.7617 70.7881C66.964 71.5285 70.3175 71.3764 73.4342 70.3494C76.5509 69.3224 79.3034 67.4625 81.3735 64.9848C83.4435 62.5071 84.7464 59.5129 85.1315 56.3486C85.5165 53.1843 84.968 49.9791 83.5494 47.1038C82.1307 44.2286 79.8999 41.8007 77.115 40.1012C74.3301 38.4016 71.1049 37.4998 67.8125 37.5Z" fill="#B3C0DC" fill-opacity="0.4"/>
</svg>
